<?xml version="1.0" encoding="UTF-8" standalone="no"?>
<svg
   xmlns:osb="http://www.openswatchbook.org/uri/2009/osb"
   xmlns:dc="http://purl.org/dc/elements/1.1/"
   xmlns:cc="http://creativecommons.org/ns#"
   xmlns:rdf="http://www.w3.org/1999/02/22-rdf-syntax-ns#"
   xmlns:svg="http://www.w3.org/2000/svg"
   xmlns="http://www.w3.org/2000/svg"
   viewBox="0 0 1200 306.25"
   height="306.25"
   width="1200"
   version="1.1"
   id="svg3347">
  <metadata
     id="metadata3353">
    <rdf:RDF>
      <cc:Work
         rdf:about="">
        <dc:format>image/svg+xml</dc:format>
        <dc:type
           rdf:resource="http://purl.org/dc/dcmitype/StillImage" />
        <dc:title></dc:title>
      </cc:Work>
    </rdf:RDF>
  </metadata>
  <defs
     id="defs3351">
    <linearGradient
       osb:paint="gradient"
       id="linearGradient8630">
      <stop
         id="stop8632"
         offset="0"
         style="stop-color:#4d4d4d;stop-opacity:1;" />
      <stop
         id="stop8634"
         offset="1"
         style="stop-color:#4d4d4d;stop-opacity:0;" />
    </linearGradient>
    <clipPath
       id="clipPath9475"
       clipPathUnits="userSpaceOnUse">
      <path
         id="path9477"
         title="sin(x)"
         d="m 89.124916,149.23552 c 2.851885,-0.95328 5.703771,-1.84101 8.555656,-2.65485 2.851888,-0.81384 5.703768,-1.55379 8.555658,-2.21288 2.85188,-0.65909 5.70377,-1.23733 8.55565,-1.72926 2.85189,-0.49194 5.70377,-0.89758 8.55566,-1.21311 2.85189,-0.31553 5.70377,-0.54094 8.55566,-0.67411 2.85188,-0.13318 5.70377,-0.17412 8.55565,-0.12245 2.85189,0.0517 5.70377,0.19598 8.55566,0.43154 2.85188,0.23556 5.70377,0.56238 8.55565,0.9774 2.85189,0.41501 5.70377,0.9182 8.55566,1.50485 2.85188,0.58665 5.70377,1.25675 8.55566,2.00401 2.85188,0.74725 5.70377,1.57164 8.55565,2.46543 2.85189,0.89379 5.70377,1.85696 8.55566,2.88047 2.85188,1.0235 5.70377,2.10733 8.55565,3.24129 2.85189,1.13396 5.70377,2.31804 8.55566,3.54112 2.85188,1.22308 5.70377,2.48514 8.55566,3.77431 2.85188,1.28918 5.70377,2.60546 8.55565,3.93647 2.85189,1.33102 5.70377,2.67675 8.55566,4.02455 2.85188,1.3478 5.70377,2.69766 8.55565,4.03689 2.85189,1.33923 5.70377,2.66781 8.55566,3.97326 2.85188,1.30545 5.70377,2.58776 8.55565,3.83486 2.85189,1.24711 5.70378,2.459 8.55566,3.6243 2.85189,1.16529 5.70377,2.28396 8.55566,3.34551 2.85188,1.06155 5.70377,2.06596 8.55565,3.00378 2.85189,0.93783 5.70377,1.80906 8.55566,2.60552 2.85188,0.79646 5.70377,1.51813 8.55565,2.15822 2.85189,0.6401 5.70378,1.19862 8.55566,1.67032 2.85189,0.47169 5.70377,0.85655 8.55566,1.15096 2.85188,0.29442 5.70377,0.49838 8.55565,0.60997 2.85189,0.11159 5.70377,0.13081 8.55566,0.0575 2.85188,-0.0733 5.70377,-0.23922 8.55565,-0.49609 2.85189,-0.25687 5.70377,-0.60474 8.55566,-1.04032 2.85189,-0.43558 5.70377,-0.95887 8.55566,-1.56496 2.85188,-0.6061 5.70377,-1.29498 8.55565,-2.06017 2.85189,-0.7652 5.70377,-1.6067 8.55566,-2.5166 2.85188,-0.9099 5.70377,-1.88819 8.55565,-2.92567 2.85189,-1.03748 5.70377,-2.13414 8.55566,-3.27968 2.85189,-1.14554 5.70377,-2.33994 8.55566,-3.57198 2.85188,-1.23203 5.70377,-2.50169 8.55565,-3.79704 2.85189,-1.29535 5.70377,-2.61638 8.55566,-3.95066 2.85188,-1.33429 5.70377,-2.68182 8.55565,-4.02993 2.85189,-1.34811 5.70377,-2.69679 8.55566,-4.03336 2.85188,-1.33656 5.70377,-2.66101 8.55566,-3.96088 2.85188,-1.29987 5.70377,-2.57515 8.55565,-3.81386 2.85189,-1.23871 5.70377,-2.44084 8.55566,-3.59508 2.85188,-1.15424 5.70377,-2.26059 8.55565,-3.30863 2.85189,-1.04805 5.70377,-2.0378 8.55566,-2.95993 2.85188,-0.92213 5.70377,-1.77665 8.55566,-2.55551 2.85188,-0.77887 5.70377,-1.48207 8.55565,-2.10301 2.85189,-0.62094 5.70377,-1.15961 8.55566,-1.61093 2.85188,-0.45133 5.70377,-0.81531 8.55565,-1.08853 2.85189,-0.27323 5.70377,-0.45568 8.55566,-0.54566 2.85188,-0.09 5.70377,-0.0875 8.55565,0.007 2.85189,0.095 5.70378,0.28239 8.55566,0.56051 2.85189,0.27812 5.70377,0.64693 8.55566,1.10297 2.85188,0.45604 5.70377,0.9993 8.55565,1.62467 2.85189,0.62538 5.70377,1.33286 8.55566,2.1158 2.85188,0.78294 5.70377,1.64134 8.55565,2.56712 2.85189,0.92577 5.70378,1.91892 8.55566,2.97011 2.85189,1.05119 5.70377,2.1604 8.55566,3.31722 2.85188,1.15682 5.70377,2.36123 8.55565,3.60191 2.85189,1.24067 5.70377,2.51761 8.55566,3.81879 2.85188,1.30119 5.70377,2.62662 8.55565,3.96383 2.85189,1.33722 5.70377,2.6862 8.55566,4.03427 2.85189,1.34807 5.70377,2.69522 8.55566,4.02878 2.85188,1.33356 5.70377,2.65352 8.55565,3.94747 2.85189,1.29396 5.70377,2.56189 8.55566,3.79189 2.85188,1.23 5.70377,2.42204 8.55565,3.56493 2.85189,1.1429 5.70377,2.23662 8.55566,3.2709 2.85189,1.03428 5.70377,2.0091 8.55566,2.9153 2.85188,0.90621 5.70377,1.74378 8.55565,2.50485 2.85189,0.76107 5.70377,1.44564 8.55566,2.04725 2.85188,0.60162 5.70377,1.12029 8.55565,1.55113 2.85189,0.43085 5.70377,0.77386 8.55566,1.02582 2.85188,0.25196 5.70377,0.41286 8.55566,0.4812 2.85188,0.0683 5.70377,0.0441 8.55565,-0.0725 2.85189,-0.11658 5.70377,-0.3255 8.55566,-0.62479 2.85188,-0.29929 5.70377,-0.68896 8.55565,-1.16533 2.85189,-0.47638 5.70377,-1.03946 8.55566,-1.68396 2.85188,-0.6445 5.70377,-1.3704 8.55566,-2.17089 2.85188,-0.80049 5.70377,-1.67555 8.55565,-2.61696 2.85189,-0.94142 5.70377,-1.94917 8.55566,-3.0138 2.85188,-1.06462 5.70377,-2.1861 8.55565,-3.3539 2.85189,-1.1678 5.70377,-2.3819 8.55566,-3.6309 2.85188,-1.249 5.70377,-2.53288 8.55565,-3.83957 2.85189,-1.30669 5.70378,-2.63618 8.55566,-3.97597 2.85189,-1.33979 5.70377,-2.68988 8.55566,-4.03756 2.85188,-1.34768 5.70377,-2.69295 8.55565,-4.02316 2.85189,-1.33021 5.70377,-2.64535 8.55566,-3.93305 2.85188,-1.2877 5.70377,-2.54796 8.55565,-3.76892 2.85189,-1.22097 5.70378,-2.40263 8.55566,-3.53388 2.85189,-1.13124 5.70377,-2.21207 8.55566,-3.23231 2.85188,-1.02024 5.70377,-1.97989 8.55565,-2.86993 2.85189,-0.89003 5.70377,-1.71045 8.55566,-2.45353 2.85188,-0.74308 5.70377,-1.40882 8.55565,-1.99097 2.85189,-0.58214 5.70377,-1.08068 8.55566,-1.49093 2.85189,-0.41024 5.70377,-0.7322 8.55566,-0.96283 2.85188,-0.23063 5.70377,-0.36995 8.55565,-0.41662 2.85189,-0.0467 5.70377,-7.3e-4 8.55566,0.13743 2.85188,0.13815 5.70377,0.36851 8.55565,0.6889 2.85189,0.32038 5.70377,0.7308 8.55566,1.2274 2.85189,0.49659 5.70377,1.07935 8.55566,1.7428 2.85188,0.66346 5.70377,1.40759 8.55565,2.22542 2.85189,0.81782 5.70377,1.70933 8.55566,2.66614 2.85188,0.9568 5.70377,1.9789 8.55565,3.05669 2.85189,1.07778 5.70377,2.21124 8.55566,3.38972 2.85188,1.17848 5.70377,2.40196 8.55566,3.65896 2.85188,1.25699 5.70375,2.54748 8.55565,3.85934 2.8519,1.31185 5.7038,2.64506 8.5557,3.98709 2.8518,1.34202 5.7037,2.69286 8.5556,4.0398 2.8519,1.34695 5.7038,2.68999 8.5557,4.01651 2.8519,1.32651 5.7037,2.63648 8.5556,3.9176 2.8519,1.28112 5.7038,2.53338 8.5557,3.74499 2.8519,1.21162 5.7038,2.38258 8.5556,3.5019 2.8519,1.11931 5.7038,2.18695 8.5557,3.19289 2.8519,1.00594 5.7038,1.95017 8.5556,2.82381 2.8519,0.87364 5.7038,1.67669 8.5557,2.40159 2.8519,0.7249 5.7038,1.37165 8.5557,1.93416 2.8518,0.56252 5.7037,1.0408 8.5556,1.43035 2.8519,0.38954 5.7038,0.69035 8.5557,0.8996 2.8519,0.20925 5.7037,0.32693 8.5556,0.35194 2.8519,0.025 5.7038,-0.0427 8.5557,-0.20235 2.8519,-0.1597 5.7038,-0.41144 8.5556,-0.75284 2.8519,-0.3414 5.7038,-0.77247 8.5557,-1.28915 2.8519,-0.51668 5.7038,-1.11897 8.5557,-1.8012 2.8518,-0.68224 5.7037,-1.44441 8.5556,-2.27937 2.8519,-0.83495 5.7038,-1.74267 8.5557,-2.71462 2.8518,-0.97196 5.7037,-2.00814 8.5556,-3.0988 113.1932,-60.5356 54.5151,-323.83941 54.5151,-323.83941 l -1351.04163,0 c 0,0 19.6107,334.85487 94.791663,317.70834 74.218751,-16.92708 115.166583,-32.01448 115.166583,-32.01448 z"
         style="opacity:0.71120001;fill:none;fill-opacity:1;stroke:#000000;stroke-width:10;stroke-linecap:butt;stroke-linejoin:round;stroke-miterlimit:4;stroke-dasharray:none;stroke-opacity:1" />
    </clipPath>
    <clipPath
       id="clipPath10025"
       clipPathUnits="userSpaceOnUse">
      <path
         id="path10027"
         title="sin(x)"
         d="m 89.124916,149.23552 c 2.851885,-0.95328 5.703771,-1.84101 8.555656,-2.65485 2.851888,-0.81384 5.703768,-1.55379 8.555658,-2.21288 2.85188,-0.65909 5.70377,-1.23733 8.55565,-1.72926 2.85189,-0.49194 5.70377,-0.89758 8.55566,-1.21311 2.85189,-0.31553 5.70377,-0.54094 8.55566,-0.67411 2.85188,-0.13318 5.70377,-0.17412 8.55565,-0.12245 2.85189,0.0517 5.70377,0.19598 8.55566,0.43154 2.85188,0.23556 5.70377,0.56238 8.55565,0.9774 2.85189,0.41501 5.70377,0.9182 8.55566,1.50485 2.85188,0.58665 5.70377,1.25675 8.55566,2.00401 2.85188,0.74725 5.70377,1.57164 8.55565,2.46543 2.85189,0.89379 5.70377,1.85696 8.55566,2.88047 2.85188,1.0235 5.70377,2.10733 8.55565,3.24129 2.85189,1.13396 5.70377,2.31804 8.55566,3.54112 2.85188,1.22308 5.70377,2.48514 8.55566,3.77431 2.85188,1.28918 5.70377,2.60546 8.55565,3.93647 2.85189,1.33102 5.70377,2.67675 8.55566,4.02455 2.85188,1.3478 5.70377,2.69766 8.55565,4.03689 2.85189,1.33923 5.70377,2.66781 8.55566,3.97326 2.85188,1.30545 5.70377,2.58776 8.55565,3.83486 2.85189,1.24711 5.70378,2.459 8.55566,3.6243 2.85189,1.16529 5.70377,2.28396 8.55566,3.34551 2.85188,1.06155 5.70377,2.06596 8.55565,3.00378 2.85189,0.93783 5.70377,1.80906 8.55566,2.60552 2.85188,0.79646 5.70377,1.51813 8.55565,2.15822 2.85189,0.6401 5.70378,1.19862 8.55566,1.67032 2.85189,0.47169 5.70377,0.85655 8.55566,1.15096 2.85188,0.29442 5.70377,0.49838 8.55565,0.60997 2.85189,0.11159 5.70377,0.13081 8.55566,0.0575 2.85188,-0.0733 5.70377,-0.23922 8.55565,-0.49609 2.85189,-0.25687 5.70377,-0.60474 8.55566,-1.04032 2.85189,-0.43558 5.70377,-0.95887 8.55566,-1.56496 2.85188,-0.6061 5.70377,-1.29498 8.55565,-2.06017 2.85189,-0.7652 5.70377,-1.6067 8.55566,-2.5166 2.85188,-0.9099 5.70377,-1.88819 8.55565,-2.92567 2.85189,-1.03748 5.70377,-2.13414 8.55566,-3.27968 2.85189,-1.14554 5.70377,-2.33994 8.55566,-3.57198 2.85188,-1.23203 5.70377,-2.50169 8.55565,-3.79704 2.85189,-1.29535 5.70377,-2.61638 8.55566,-3.95066 2.85188,-1.33429 5.70377,-2.68182 8.55565,-4.02993 2.85189,-1.34811 5.70377,-2.69679 8.55566,-4.03336 2.85188,-1.33656 5.70377,-2.66101 8.55566,-3.96088 2.85188,-1.29987 5.70377,-2.57515 8.55565,-3.81386 2.85189,-1.23871 5.70377,-2.44084 8.55566,-3.59508 2.85188,-1.15424 5.70377,-2.26059 8.55565,-3.30863 2.85189,-1.04805 5.70377,-2.0378 8.55566,-2.95993 2.85188,-0.92213 5.70377,-1.77665 8.55566,-2.55551 2.85188,-0.77887 5.70377,-1.48207 8.55565,-2.10301 2.85189,-0.62094 5.70377,-1.15961 8.55566,-1.61093 2.85188,-0.45133 5.70377,-0.81531 8.55565,-1.08853 2.85189,-0.27323 5.70377,-0.45568 8.55566,-0.54566 2.85188,-0.09 5.70377,-0.0875 8.55565,0.007 2.85189,0.095 5.70378,0.28239 8.55566,0.56051 2.85189,0.27812 5.70377,0.64693 8.55566,1.10297 2.85188,0.45604 5.70377,0.9993 8.55565,1.62467 2.85189,0.62538 5.70377,1.33286 8.55566,2.1158 2.85188,0.78294 5.70377,1.64134 8.55565,2.56712 2.85189,0.92577 5.70378,1.91892 8.55566,2.97011 2.85189,1.05119 5.70377,2.1604 8.55566,3.31722 2.85188,1.15682 5.70377,2.36123 8.55565,3.60191 2.85189,1.24067 5.70377,2.51761 8.55566,3.81879 2.85188,1.30119 5.70377,2.62662 8.55565,3.96383 2.85189,1.33722 5.70377,2.6862 8.55566,4.03427 2.85189,1.34807 5.70377,2.69522 8.55566,4.02878 2.85188,1.33356 5.70377,2.65352 8.55565,3.94747 2.85189,1.29396 5.70377,2.56189 8.55566,3.79189 2.85188,1.23 5.70377,2.42204 8.55565,3.56493 2.85189,1.1429 5.70377,2.23662 8.55566,3.2709 2.85189,1.03428 5.70377,2.0091 8.55566,2.9153 2.85188,0.90621 5.70377,1.74378 8.55565,2.50485 2.85189,0.76107 5.70377,1.44564 8.55566,2.04725 2.85188,0.60162 5.70377,1.12029 8.55565,1.55113 2.85189,0.43085 5.70377,0.77386 8.55566,1.02582 2.85188,0.25196 5.70377,0.41286 8.55566,0.4812 2.85188,0.0683 5.70377,0.0441 8.55565,-0.0725 2.85189,-0.11658 5.70377,-0.3255 8.55566,-0.62479 2.85188,-0.29929 5.70377,-0.68896 8.55565,-1.16533 2.85189,-0.47638 5.70377,-1.03946 8.55566,-1.68396 2.85188,-0.6445 5.70377,-1.3704 8.55566,-2.17089 2.85188,-0.80049 5.70377,-1.67555 8.55565,-2.61696 2.85189,-0.94142 5.70377,-1.94917 8.55566,-3.0138 2.85188,-1.06462 5.70377,-2.1861 8.55565,-3.3539 2.85189,-1.1678 5.70377,-2.3819 8.55566,-3.6309 2.85188,-1.249 5.70377,-2.53288 8.55565,-3.83957 2.85189,-1.30669 5.70378,-2.63618 8.55566,-3.97597 2.85189,-1.33979 5.70377,-2.68988 8.55566,-4.03756 2.85188,-1.34768 5.70377,-2.69295 8.55565,-4.02316 2.85189,-1.33021 5.70377,-2.64535 8.55566,-3.93305 2.85188,-1.2877 5.70377,-2.54796 8.55565,-3.76892 2.85189,-1.22097 5.70378,-2.40263 8.55566,-3.53388 2.85189,-1.13124 5.70377,-2.21207 8.55566,-3.23231 2.85188,-1.02024 5.70377,-1.97989 8.55565,-2.86993 2.85189,-0.89003 5.70377,-1.71045 8.55566,-2.45353 2.85188,-0.74308 5.70377,-1.40882 8.55565,-1.99097 2.85189,-0.58214 5.70377,-1.08068 8.55566,-1.49093 2.85189,-0.41024 5.70377,-0.7322 8.55566,-0.96283 2.85188,-0.23063 5.70377,-0.36995 8.55565,-0.41662 2.85189,-0.0467 5.70377,-7.3e-4 8.55566,0.13743 2.85188,0.13815 5.70377,0.36851 8.55565,0.6889 2.85189,0.32038 5.70377,0.7308 8.55566,1.2274 2.85189,0.49659 5.70377,1.07935 8.55566,1.7428 2.85188,0.66346 5.70377,1.40759 8.55565,2.22542 2.85189,0.81782 5.70377,1.70933 8.55566,2.66614 2.85188,0.9568 5.70377,1.9789 8.55565,3.05669 2.85189,1.07778 5.70377,2.21124 8.55566,3.38972 2.85188,1.17848 5.70377,2.40196 8.55566,3.65896 2.85188,1.25699 5.70375,2.54748 8.55565,3.85934 2.8519,1.31185 5.7038,2.64506 8.5557,3.98709 2.8518,1.34202 5.7037,2.69286 8.5556,4.0398 2.8519,1.34695 5.7038,2.68999 8.5557,4.01651 2.8519,1.32651 5.7037,2.63648 8.5556,3.9176 2.8519,1.28112 5.7038,2.53338 8.5557,3.74499 2.8519,1.21162 5.7038,2.38258 8.5556,3.5019 2.8519,1.11931 5.7038,2.18695 8.5557,3.19289 2.8519,1.00594 5.7038,1.95017 8.5556,2.82381 2.8519,0.87364 5.7038,1.67669 8.5557,2.40159 2.8519,0.7249 5.7038,1.37165 8.5557,1.93416 2.8518,0.56252 5.7037,1.0408 8.5556,1.43035 2.8519,0.38954 5.7038,0.69035 8.5557,0.8996 2.8519,0.20925 5.7037,0.32693 8.5556,0.35194 2.8519,0.025 5.7038,-0.0427 8.5557,-0.20235 2.8519,-0.1597 5.7038,-0.41144 8.5556,-0.75284 2.8519,-0.3414 5.7038,-0.77247 8.5557,-1.28915 2.8519,-0.51668 5.7038,-1.11897 8.5557,-1.8012 2.8518,-0.68224 5.7037,-1.44441 8.5556,-2.27937 2.8519,-0.83495 5.7038,-1.74267 8.5557,-2.71462 2.8518,-0.97196 5.7037,-2.00814 8.5556,-3.0988 113.1932,-60.5356 94.0984,252.20226 94.0984,252.20226 L -101.04166,446.875 c 0,0 -0.18097,-248.47847 74.999993,-265.625 74.218751,-16.92708 115.166583,-32.01448 115.166583,-32.01448 z"
         style="opacity:0.71120001;fill:none;fill-opacity:1;stroke:#000000;stroke-width:10;stroke-linecap:butt;stroke-linejoin:round;stroke-miterlimit:4;stroke-dasharray:none;stroke-opacity:1" />
    </clipPath>
  </defs>
  <g
     style="display:inline"
     id="layer4">
    <path
       id="text9469"
       d="M 849.95508 16.380859 C 846.64008 16.380859 844.98242 18.166328 844.98242 21.736328 L 844.98242 57.691406 C 844.98242 61.261406 846.64008 63.044922 849.95508 63.044922 L 867.54883 63.044922 C 871.11883 63.044922 872.9043 61.261406 872.9043 57.691406 L 872.9043 21.736328 C 872.9043 18.166328 871.11883 16.380859 867.54883 16.380859 L 849.95508 16.380859 z M 141.82812 89.820312 C 107.40312 89.820312 90.189453 105.50414 90.189453 136.86914 C 90.189453 139.17813 90.297636 141.39849 90.505859 143.53711 C 92.43798 142.92211 94.371662 142.32617 96.308594 141.77344 C 99.237274 140.93768 102.17202 140.17539 105.11133 139.49609 C 108.05061 138.8168 110.99299 138.21952 113.94141 137.71094 C 115.58526 137.42738 117.23099 137.17897 118.87695 136.95117 L 118.87695 132.66016 C 118.87695 127.56016 121.17172 123.09844 125.76172 119.27344 C 130.60672 115.44844 137.61883 113.53516 146.79883 113.53516 L 204.55664 113.53516 C 208.12664 113.53516 209.91211 111.8775 209.91211 108.5625 L 209.91211 95.175781 C 209.91211 91.605781 208.12664 89.820312 204.55664 89.820312 L 141.82812 89.820312 z M 317.62109 89.820312 C 300.02609 89.820312 286.12969 94.793281 275.92969 104.73828 C 265.98469 114.68328 261.01172 128.58164 261.01172 146.43164 L 261.01172 176.12305 C 261.42122 176.30349 261.83296 176.49488 262.24219 176.67383 C 265.06242 177.90709 267.87686 179.1043 270.68555 180.25195 C 273.49422 181.39958 276.29682 182.49797 279.09375 183.53906 C 281.89065 184.58015 284.68164 185.56264 287.4668 186.47852 C 290.25196 187.3944 293.03088 188.24488 295.80469 189.01953 C 298.57846 189.79418 301.34802 190.49307 304.11133 191.11328 C 306.87464 191.7335 309.63424 192.27489 312.38867 192.73047 C 315.1431 193.18604 317.89279 193.55618 320.64062 193.83984 C 323.38845 194.12352 326.13474 194.32036 328.87891 194.42773 C 331.62308 194.53513 334.36748 194.55292 337.11133 194.48242 C 339.85506 194.4119 342.59885 194.25327 345.3457 194.00586 C 348.09251 193.75845 350.84284 193.42241 353.5957 193.00195 C 356.34856 192.5815 359.10587 192.07512 361.86719 191.48828 C 364.62852 190.90143 367.3945 190.23386 370.16602 189.49023 C 372.93755 188.74659 375.71528 187.92691 378.49805 187.03906 C 381.28081 186.15121 384.06882 185.19628 386.86328 184.17969 C 389.65776 183.16309 392.45938 182.08619 395.26562 180.95898 C 398.07188 179.83177 400.88331 178.65289 403.70117 177.43555 C 404.45886 177.10822 405.21999 176.75671 405.97852 176.42383 L 405.97852 146.43164 C 405.97852 128.58164 401.0075 114.68328 391.0625 104.73828 C 381.1175 94.793281 367.34695 89.820312 349.75195 89.820312 L 317.62109 89.820312 z M 505.88281 89.820312 C 488.28781 89.820312 474.39141 94.793281 464.19141 104.73828 C 454.24641 114.68328 449.27344 128.58164 449.27344 146.43164 L 449.27344 156.41797 C 451.18936 155.55616 453.10419 154.68798 455.02539 153.85352 C 457.91027 152.60048 460.80079 151.38322 463.69727 150.21094 C 466.59373 149.03865 469.49606 147.9125 472.4043 146.84375 C 474.01609 146.25143 475.63073 145.6807 477.24609 145.125 C 478.01304 124.57926 488.57531 114.30078 508.94336 114.30078 L 562.49414 114.30078 C 565.04414 114.30078 566.31836 115.44914 566.31836 117.74414 L 566.31836 140.41406 C 567.40056 140.6897 568.48335 140.96492 569.56445 141.26172 C 572.49542 142.06637 575.42215 142.94675 578.3418 143.89453 C 581.26145 144.8423 584.17411 145.85784 587.08203 146.92969 C 589.47252 147.81081 591.85793 148.73754 594.24023 149.68945 L 594.24023 95.175781 C 594.24023 91.605781 592.45672 89.820312 588.88672 89.820312 L 505.88281 89.820312 z M 652.69141 89.820312 C 649.12141 89.820312 647.33594 91.605781 647.33594 95.175781 L 647.33594 173.79102 C 650.15574 175.07024 652.97077 176.32191 655.7793 177.5332 C 658.59682 178.74839 661.40695 179.92435 664.21289 181.04883 C 667.01881 182.17331 669.81912 183.24642 672.61328 184.25977 C 673.4962 184.57997 674.37797 184.88338 675.25977 185.19141 L 675.25977 149.49023 C 675.25977 138.27023 678.31945 129.60047 684.43945 123.48047 C 690.55945 117.36047 699.35703 114.30078 710.83203 114.30078 L 732.25195 114.30078 C 753.67195 114.30078 764.38086 125.39312 764.38086 147.57812 L 764.38086 188.74609 C 766.91918 188.02238 769.462 187.24531 772.00977 186.4043 C 774.79527 185.48479 777.58754 184.4993 780.38477 183.45508 C 783.182 182.41086 785.98595 181.30843 788.79492 180.1582 C 789.96395 179.67951 791.13386 179.18794 792.30469 178.69336 L 792.30469 146.43164 C 792.30469 128.58164 787.45953 114.68328 777.76953 104.73828 C 768.07953 94.793281 754.56461 89.820312 737.22461 89.820312 L 715.80469 89.820312 C 696.16969 89.820312 683.16406 96.57875 676.78906 110.09375 L 675.25977 110.09375 L 675.25977 95.175781 C 675.25977 91.605781 673.4743 89.820312 669.9043 89.820312 L 652.69141 89.820312 z M 849.95508 89.820312 C 846.64008 89.820312 844.98242 91.605781 844.98242 95.175781 L 844.98242 154.57617 C 846.1924 154.0451 847.39953 153.49732 848.61133 152.97852 C 851.49891 151.74226 854.39182 150.54455 857.29102 149.39453 C 860.19022 148.24452 863.09485 147.14295 866.00586 146.10156 C 868.3015 145.28031 870.60154 144.50787 872.9043 143.76562 L 872.9043 95.175781 C 872.9043 91.605781 871.11883 89.820312 867.54883 89.820312 L 849.95508 89.820312 z M 932.84375 89.820312 C 929.27375 89.820312 927.48828 91.605781 927.48828 95.175781 L 927.48828 135.75781 C 927.59894 135.76291 927.70966 135.76222 927.82031 135.76758 C 930.77959 135.91093 933.73821 136.15043 936.69336 136.48242 C 939.64853 136.8144 942.60063 137.23858 945.54883 137.75195 C 948.49702 138.26531 951.43988 138.86706 954.37891 139.55078 C 955.00516 139.69647 955.63011 139.86062 956.25586 140.01367 C 957.54706 133.26334 960.32093 127.74938 964.58984 123.48047 C 970.70984 117.36047 979.50742 114.30078 990.98242 114.30078 L 1005.1348 114.30078 C 1026.5548 114.30078 1037.2656 125.39312 1037.2656 147.57812 L 1037.2656 173.03516 C 1038.4607 173.58132 1039.6586 174.14185 1040.8516 174.67773 C 1043.6779 175.94735 1046.4996 177.18499 1049.3145 178.38086 C 1052.1293 179.57674 1054.9371 180.72985 1057.7402 181.83008 C 1060.2273 182.8062 1062.7096 183.73301 1065.1875 184.61914 L 1065.1875 150.63867 C 1065.1875 139.41867 1068.2491 130.62109 1074.3691 124.24609 C 1080.7441 117.61609 1089.6676 114.30078 1101.1426 114.30078 L 1113.7656 114.30078 C 1135.1856 114.30078 1145.8965 125.39312 1145.8965 147.57812 L 1145.8965 191.2793 C 1146.8852 191.06285 1147.8733 190.84815 1148.8633 190.61133 C 1151.6292 189.94964 1154.401 189.20943 1157.1777 188.39648 C 1159.9545 187.58355 1162.7372 186.6983 1165.5254 185.74805 C 1168.1953 184.83808 1170.87 183.8607 1173.5508 182.83984 C 1173.6411 182.7912 1173.7283 182.73837 1173.8184 182.68945 L 1173.8184 146.43164 C 1173.8184 128.58164 1168.9732 114.68328 1159.2832 104.73828 C 1149.5932 94.793281 1136.0783 89.820312 1118.7383 89.820312 L 1105.3516 89.820312 C 1095.6616 89.820312 1086.3527 92.115078 1077.4277 96.705078 C 1068.7577 101.04008 1062.3827 107.41508 1058.3027 115.83008 C 1049.6327 98.490078 1034.0787 89.820312 1011.6387 89.820312 L 997.48633 89.820312 C 977.59633 89.820312 964.08141 96.57875 956.94141 110.09375 L 955.41016 110.09375 L 955.41016 95.175781 C 955.41016 91.605781 953.62664 89.820312 950.05664 89.820312 L 932.84375 89.820312 z M 320.68164 114.30078 L 346.69141 114.30078 C 368.11141 114.30078 378.82227 125.26531 378.82227 147.19531 L 378.82227 176.64844 C 378.82227 179.19844 377.54609 180.47266 374.99609 180.47266 L 292.37695 180.47266 C 289.82695 180.47266 288.55273 179.19844 288.55273 176.64844 L 288.55273 147.19531 C 288.55273 125.26531 299.26164 114.30078 320.68164 114.30078 z M 927.48828 145.76562 L 927.48828 279.54102 C 927.48828 283.11102 929.27375 284.89648 932.84375 284.89648 L 950.05664 284.89648 C 953.62664 284.89648 955.41016 283.11102 955.41016 279.54102 L 955.41016 150.10352 C 954.31035 149.82331 953.21134 149.54647 952.11328 149.29102 C 949.34853 148.64784 946.58762 148.08334 943.83203 147.60352 C 941.07645 147.12369 938.32478 146.7287 935.57617 146.41992 C 932.87776 146.11677 930.18266 145.89935 927.48828 145.76562 z M 120.29883 146.84961 C 118.74774 147.06397 117.19637 147.29838 115.64258 147.56641 C 112.88724 148.04168 110.1258 148.60134 107.36133 149.24023 C 104.59686 149.87912 101.82783 150.59675 99.052734 151.38867 C 96.835863 152.0213 94.614632 152.71266 92.390625 153.43555 C 93.792464 158.15098 95.861369 162.32028 98.605469 165.9375 C 104.21547 173.0775 113.52234 179.32664 126.52734 184.68164 L 171.66211 203.80664 C 184.66711 208.90664 191.16992 218.21352 191.16992 231.72852 L 191.16992 238.99609 C 191.16992 253.78609 181.22398 261.18164 161.33398 261.18164 L 97.074219 261.18164 C 93.504219 261.18164 91.71875 262.8393 91.71875 266.1543 L 91.71875 279.54102 C 91.71875 283.11102 93.504219 284.89648 97.074219 284.89648 L 165.16016 284.89648 C 201.62516 284.89648 219.85742 269.59609 219.85742 238.99609 C 219.85742 224.20609 217.43484 212.6025 212.58984 204.1875 C 207.99984 195.7725 199.07445 189.01602 185.81445 183.91602 L 140.67969 163.64258 C 129.8478 159.46185 123.05849 153.8627 120.29883 146.84961 z M 566.31836 150.75 L 566.31836 225.22656 C 566.31836 236.44656 563.25867 245.11633 557.13867 251.23633 C 551.01867 257.35633 542.22109 260.41602 530.74609 260.41602 L 508.94336 260.41602 C 487.77836 260.41602 477.19531 249.32367 477.19531 227.13867 L 477.19531 155.75195 C 476.748 155.91341 476.30112 156.06598 475.85352 156.23047 C 473.05799 157.2578 470.25651 158.34427 467.44922 159.48047 C 464.64192 160.61666 461.82867 161.80101 459.00977 163.02539 C 456.19086 164.24978 453.36733 165.51469 450.53711 166.80469 C 450.11684 166.99624 449.69397 167.19601 449.27344 167.38867 L 449.27344 228.28516 C 449.27344 246.13516 454.24641 260.03352 464.19141 269.97852 C 474.39141 279.92352 488.28781 284.89648 505.88281 284.89648 L 525.77344 284.89648 C 545.40844 284.89648 558.41406 278.13805 564.78906 264.62305 L 566.31836 264.62305 L 566.31836 279.54102 C 566.31836 283.11102 568.10383 284.89648 571.67383 284.89648 L 588.88672 284.89648 C 592.45672 284.89648 594.24023 283.11102 594.24023 279.54102 L 594.24023 160.48633 C 593.50323 160.18116 592.76558 159.87093 592.0293 159.57227 C 589.22168 158.43341 586.41891 157.34304 583.62305 156.3125 C 580.82721 155.28197 578.03803 154.31002 575.25391 153.40625 C 572.4698 152.50247 569.69076 151.66748 566.91797 150.90625 C 566.7179 150.85132 566.51837 150.80416 566.31836 150.75 z M 872.9043 154.29297 C 871.72814 154.69195 870.55117 155.09611 869.37305 155.51758 C 866.58028 156.51667 863.78113 157.57698 860.97656 158.68945 C 858.17255 159.80173 855.36251 160.96642 852.54688 162.17188 C 850.0307 163.24911 847.50788 164.36912 844.98242 165.50391 L 844.98242 279.54102 C 844.98242 283.11102 846.76594 284.89648 850.33594 284.89648 L 867.54883 284.89648 C 871.11883 284.89648 872.9043 283.11102 872.9043 279.54102 L 872.9043 154.29297 z M 1037.2656 184.02539 L 1037.2656 279.54102 C 1037.2656 283.11102 1039.0511 284.89648 1042.6211 284.89648 L 1059.834 284.89648 C 1063.404 284.89648 1065.1875 283.11102 1065.1875 279.54102 L 1065.1875 195.20508 C 1064.394 194.93455 1063.5994 194.67219 1062.8066 194.39258 C 1059.8943 193.3653 1056.9885 192.2771 1054.0879 191.13867 C 1051.1874 190.00026 1048.2913 188.8133 1045.4023 187.58594 C 1042.6845 186.43124 1039.9733 185.23861 1037.2656 184.02539 z M 647.33594 184.73047 L 647.33594 279.54102 C 647.33594 283.11102 649.12141 284.89648 652.69141 284.89648 L 669.9043 284.89648 C 673.4743 284.89648 675.25977 283.11102 675.25977 279.54102 L 675.25977 195.75391 C 673.23924 195.08305 671.22009 194.39289 669.20508 193.66211 C 666.29546 192.6069 663.392 191.49335 660.49414 190.33203 C 657.59632 189.17073 654.70459 187.96161 651.81836 186.7168 C 650.32145 186.07119 648.83004 185.39373 647.33594 184.73047 z M 261.01172 187.0332 L 261.01172 228.28516 C 261.01172 246.13516 265.98469 260.03352 275.92969 269.97852 C 286.12969 279.92352 300.02609 284.89648 317.62109 284.89648 L 398.71094 284.89648 C 402.28094 284.89648 404.06641 283.23883 404.06641 279.92383 L 404.06641 266.1543 C 404.06641 262.5843 402.28094 260.79883 398.71094 260.79883 L 320.68164 260.79883 C 299.26164 260.79883 288.55273 249.70648 288.55273 227.52148 L 288.55273 204.1875 C 288.55273 201.8925 289.82695 200.74609 292.37695 200.74609 L 301.39844 200.74609 C 298.63305 200.11612 295.87125 199.42007 293.11523 198.65039 C 290.18526 197.83212 287.26237 196.93829 284.34375 195.97852 C 281.42515 195.01876 278.51233 193.99217 275.60547 192.91016 C 272.69862 191.82815 269.79746 190.69076 266.90234 189.50781 C 264.93584 188.70428 262.97291 187.8745 261.01172 187.0332 z M 405.97852 187.33398 C 403.6532 188.32648 401.32486 189.3013 398.99219 190.23828 C 396.09465 191.40216 393.19055 192.51781 390.28125 193.57617 C 387.37195 194.63454 384.4581 195.63446 381.53711 196.56641 C 378.61609 197.49836 375.69005 198.36168 372.75781 199.14844 C 370.59565 199.72857 368.42956 200.25233 366.26172 200.74609 L 400.625 200.74609 C 404.195 200.74609 405.97852 198.83281 405.97852 195.00781 L 405.97852 187.33398 z M 792.30469 189.52344 C 789.50238 190.66792 786.69409 191.77207 783.88086 192.82227 C 780.97431 193.9073 778.06281 194.93706 775.14453 195.90039 C 772.22624 196.86372 769.30271 197.76166 766.37305 198.58398 C 765.70952 198.77023 765.04492 198.93886 764.38086 199.11719 L 764.38086 279.54102 C 764.38086 283.11102 766.16633 284.89648 769.73633 284.89648 L 786.94922 284.89648 C 790.51922 284.89648 792.30469 283.11102 792.30469 279.54102 L 792.30469 189.52344 z M 1173.8184 193.41602 C 1172.1309 194.03349 1170.4414 194.63642 1168.75 195.21289 C 1165.8344 196.20654 1162.9134 197.13523 1159.9863 197.99219 C 1157.0592 198.84917 1154.1272 199.63314 1151.1895 200.33594 C 1149.4269 200.75756 1147.6625 201.14182 1145.8965 201.50391 L 1145.8965 279.54102 C 1145.8965 283.11102 1147.68 284.89648 1151.25 284.89648 L 1168.4629 284.89648 C 1172.0329 284.89648 1173.8184 283.11102 1173.8184 279.54102 L 1173.8184 193.41602 z M 26.173828 228.28516 C 22.858828 228.28516 21.203125 229.94281 21.203125 233.25781 L 21.203125 279.54102 C 21.203125 283.11102 22.858828 284.89648 26.173828 284.89648 L 45.681641 284.89648 C 48.996641 284.89648 50.654297 283.11102 50.654297 279.54102 L 50.654297 233.25781 C 50.654297 229.94281 48.996641 228.28516 45.681641 228.28516 L 26.173828 228.28516 z "
       clip-path="url(#clipPath9475)"
       style="font-style:normal;font-weight:normal;font-size:40px;line-height:125%;font-family:sans-serif;letter-spacing:0px;word-spacing:0px;display:inline;fill:#2c2c2c;fill-opacity:1;stroke:none;stroke-width:1px;stroke-linecap:butt;stroke-linejoin:miter;stroke-opacity:1" />
    <path
       id="text10021"
       d="M 849.95508 16.380859 C 846.64008 16.380859 844.98242 18.166328 844.98242 21.736328 L 844.98242 57.691406 C 844.98242 61.261406 846.64008 63.044922 849.95508 63.044922 L 867.54883 63.044922 C 871.11883 63.044922 872.9043 61.261406 872.9043 57.691406 L 872.9043 21.736328 C 872.9043 18.166328 871.11883 16.380859 867.54883 16.380859 L 849.95508 16.380859 z M 141.82812 89.820312 C 107.40312 89.820312 90.189453 105.50414 90.189453 136.86914 C 90.189453 139.17813 90.297636 141.39849 90.505859 143.53711 C 92.43798 142.92211 94.371662 142.32617 96.308594 141.77344 C 99.237274 140.93768 102.17202 140.17539 105.11133 139.49609 C 108.05061 138.8168 110.99299 138.21952 113.94141 137.71094 C 115.58526 137.42738 117.23099 137.17897 118.87695 136.95117 L 118.87695 132.66016 C 118.87695 127.56016 121.17172 123.09844 125.76172 119.27344 C 130.60672 115.44844 137.61883 113.53516 146.79883 113.53516 L 204.55664 113.53516 C 208.12664 113.53516 209.91211 111.8775 209.91211 108.5625 L 209.91211 95.175781 C 209.91211 91.605781 208.12664 89.820312 204.55664 89.820312 L 141.82812 89.820312 z M 317.62109 89.820312 C 300.02609 89.820312 286.12969 94.793281 275.92969 104.73828 C 265.98469 114.68328 261.01172 128.58164 261.01172 146.43164 L 261.01172 176.12305 C 261.42122 176.30349 261.83296 176.49488 262.24219 176.67383 C 265.06242 177.90709 267.87686 179.1043 270.68555 180.25195 C 273.49422 181.39958 276.29682 182.49797 279.09375 183.53906 C 281.89065 184.58015 284.68164 185.56264 287.4668 186.47852 C 290.25196 187.3944 293.03088 188.24488 295.80469 189.01953 C 298.57846 189.79418 301.34802 190.49307 304.11133 191.11328 C 306.87464 191.7335 309.63424 192.27489 312.38867 192.73047 C 315.1431 193.18604 317.89279 193.55618 320.64062 193.83984 C 323.38845 194.12352 326.13474 194.32036 328.87891 194.42773 C 331.62308 194.53513 334.36748 194.55292 337.11133 194.48242 C 339.85506 194.4119 342.59885 194.25327 345.3457 194.00586 C 348.09251 193.75845 350.84284 193.42241 353.5957 193.00195 C 356.34856 192.5815 359.10587 192.07512 361.86719 191.48828 C 364.62852 190.90143 367.3945 190.23386 370.16602 189.49023 C 372.93755 188.74659 375.71528 187.92691 378.49805 187.03906 C 381.28081 186.15121 384.06882 185.19628 386.86328 184.17969 C 389.65776 183.16309 392.45938 182.08619 395.26562 180.95898 C 398.07188 179.83177 400.88331 178.65289 403.70117 177.43555 C 404.45886 177.10822 405.21999 176.75671 405.97852 176.42383 L 405.97852 146.43164 C 405.97852 128.58164 401.0075 114.68328 391.0625 104.73828 C 381.1175 94.793281 367.34695 89.820312 349.75195 89.820312 L 317.62109 89.820312 z M 505.88281 89.820312 C 488.28781 89.820312 474.39141 94.793281 464.19141 104.73828 C 454.24641 114.68328 449.27344 128.58164 449.27344 146.43164 L 449.27344 156.41797 C 451.18936 155.55616 453.10419 154.68798 455.02539 153.85352 C 457.91027 152.60048 460.80079 151.38322 463.69727 150.21094 C 466.59373 149.03865 469.49606 147.9125 472.4043 146.84375 C 474.01609 146.25143 475.63073 145.6807 477.24609 145.125 C 478.01304 124.57926 488.57531 114.30078 508.94336 114.30078 L 562.49414 114.30078 C 565.04414 114.30078 566.31836 115.44914 566.31836 117.74414 L 566.31836 140.41406 C 567.40056 140.6897 568.48335 140.96492 569.56445 141.26172 C 572.49542 142.06637 575.42215 142.94675 578.3418 143.89453 C 581.26145 144.8423 584.17411 145.85784 587.08203 146.92969 C 589.47252 147.81081 591.85793 148.73754 594.24023 149.68945 L 594.24023 95.175781 C 594.24023 91.605781 592.45672 89.820312 588.88672 89.820312 L 505.88281 89.820312 z M 652.69141 89.820312 C 649.12141 89.820312 647.33594 91.605781 647.33594 95.175781 L 647.33594 173.79102 C 650.15574 175.07024 652.97077 176.32191 655.7793 177.5332 C 658.59682 178.74839 661.40695 179.92435 664.21289 181.04883 C 667.01881 182.17331 669.81912 183.24642 672.61328 184.25977 C 673.4962 184.57997 674.37797 184.88338 675.25977 185.19141 L 675.25977 149.49023 C 675.25977 138.27023 678.31945 129.60047 684.43945 123.48047 C 690.55945 117.36047 699.35703 114.30078 710.83203 114.30078 L 732.25195 114.30078 C 753.67195 114.30078 764.38086 125.39312 764.38086 147.57812 L 764.38086 188.74609 C 766.91918 188.02238 769.462 187.24531 772.00977 186.4043 C 774.79527 185.48479 777.58754 184.4993 780.38477 183.45508 C 783.182 182.41086 785.98595 181.30843 788.79492 180.1582 C 789.96395 179.67951 791.13386 179.18794 792.30469 178.69336 L 792.30469 146.43164 C 792.30469 128.58164 787.45953 114.68328 777.76953 104.73828 C 768.07953 94.793281 754.56461 89.820312 737.22461 89.820312 L 715.80469 89.820312 C 696.16969 89.820312 683.16406 96.57875 676.78906 110.09375 L 675.25977 110.09375 L 675.25977 95.175781 C 675.25977 91.605781 673.4743 89.820312 669.9043 89.820312 L 652.69141 89.820312 z M 849.95508 89.820312 C 846.64008 89.820312 844.98242 91.605781 844.98242 95.175781 L 844.98242 154.57617 C 846.1924 154.0451 847.39953 153.49732 848.61133 152.97852 C 851.49891 151.74226 854.39182 150.54455 857.29102 149.39453 C 860.19022 148.24452 863.09485 147.14295 866.00586 146.10156 C 868.3015 145.28031 870.60154 144.50787 872.9043 143.76562 L 872.9043 95.175781 C 872.9043 91.605781 871.11883 89.820312 867.54883 89.820312 L 849.95508 89.820312 z M 932.84375 89.820312 C 929.27375 89.820312 927.48828 91.605781 927.48828 95.175781 L 927.48828 135.75781 C 927.59894 135.76291 927.70966 135.76222 927.82031 135.76758 C 930.77959 135.91093 933.73821 136.15043 936.69336 136.48242 C 939.64853 136.8144 942.60063 137.23858 945.54883 137.75195 C 948.49702 138.26531 951.43988 138.86706 954.37891 139.55078 C 955.00516 139.69647 955.63011 139.86062 956.25586 140.01367 C 957.54706 133.26334 960.32093 127.74938 964.58984 123.48047 C 970.70984 117.36047 979.50742 114.30078 990.98242 114.30078 L 1005.1348 114.30078 C 1026.5548 114.30078 1037.2656 125.39312 1037.2656 147.57812 L 1037.2656 173.03516 C 1038.4607 173.58132 1039.6586 174.14185 1040.8516 174.67773 C 1043.6779 175.94735 1046.4996 177.18499 1049.3145 178.38086 C 1052.1293 179.57674 1054.9371 180.72985 1057.7402 181.83008 C 1060.2273 182.8062 1062.7096 183.73301 1065.1875 184.61914 L 1065.1875 150.63867 C 1065.1875 139.41867 1068.2491 130.62109 1074.3691 124.24609 C 1080.7441 117.61609 1089.6676 114.30078 1101.1426 114.30078 L 1113.7656 114.30078 C 1135.1856 114.30078 1145.8965 125.39312 1145.8965 147.57812 L 1145.8965 191.2793 C 1146.8852 191.06285 1147.8733 190.84815 1148.8633 190.61133 C 1151.6292 189.94964 1154.401 189.20943 1157.1777 188.39648 C 1159.9545 187.58355 1162.7372 186.6983 1165.5254 185.74805 C 1168.1953 184.83808 1170.87 183.8607 1173.5508 182.83984 C 1173.6411 182.7912 1173.7283 182.73837 1173.8184 182.68945 L 1173.8184 146.43164 C 1173.8184 128.58164 1168.9732 114.68328 1159.2832 104.73828 C 1149.5932 94.793281 1136.0783 89.820312 1118.7383 89.820312 L 1105.3516 89.820312 C 1095.6616 89.820312 1086.3527 92.115078 1077.4277 96.705078 C 1068.7577 101.04008 1062.3827 107.41508 1058.3027 115.83008 C 1049.6327 98.490078 1034.0787 89.820312 1011.6387 89.820312 L 997.48633 89.820312 C 977.59633 89.820312 964.08141 96.57875 956.94141 110.09375 L 955.41016 110.09375 L 955.41016 95.175781 C 955.41016 91.605781 953.62664 89.820312 950.05664 89.820312 L 932.84375 89.820312 z M 320.68164 114.30078 L 346.69141 114.30078 C 368.11141 114.30078 378.82227 125.26531 378.82227 147.19531 L 378.82227 176.64844 C 378.82227 179.19844 377.54609 180.47266 374.99609 180.47266 L 292.37695 180.47266 C 289.82695 180.47266 288.55273 179.19844 288.55273 176.64844 L 288.55273 147.19531 C 288.55273 125.26531 299.26164 114.30078 320.68164 114.30078 z M 927.48828 145.76562 L 927.48828 279.54102 C 927.48828 283.11102 929.27375 284.89648 932.84375 284.89648 L 950.05664 284.89648 C 953.62664 284.89648 955.41016 283.11102 955.41016 279.54102 L 955.41016 150.10352 C 954.31035 149.82331 953.21134 149.54647 952.11328 149.29102 C 949.34853 148.64784 946.58762 148.08334 943.83203 147.60352 C 941.07645 147.12369 938.32478 146.7287 935.57617 146.41992 C 932.87776 146.11677 930.18266 145.89935 927.48828 145.76562 z M 120.29883 146.84961 C 118.74774 147.06397 117.19637 147.29838 115.64258 147.56641 C 112.88724 148.04168 110.1258 148.60134 107.36133 149.24023 C 104.59686 149.87912 101.82783 150.59675 99.052734 151.38867 C 96.835863 152.0213 94.614632 152.71266 92.390625 153.43555 C 93.792464 158.15098 95.861369 162.32028 98.605469 165.9375 C 104.21547 173.0775 113.52234 179.32664 126.52734 184.68164 L 171.66211 203.80664 C 184.66711 208.90664 191.16992 218.21352 191.16992 231.72852 L 191.16992 238.99609 C 191.16992 253.78609 181.22398 261.18164 161.33398 261.18164 L 97.074219 261.18164 C 93.504219 261.18164 91.71875 262.8393 91.71875 266.1543 L 91.71875 279.54102 C 91.71875 283.11102 93.504219 284.89648 97.074219 284.89648 L 165.16016 284.89648 C 201.62516 284.89648 219.85742 269.59609 219.85742 238.99609 C 219.85742 224.20609 217.43484 212.6025 212.58984 204.1875 C 207.99984 195.7725 199.07445 189.01602 185.81445 183.91602 L 140.67969 163.64258 C 129.8478 159.46185 123.05849 153.8627 120.29883 146.84961 z M 566.31836 150.75 L 566.31836 225.22656 C 566.31836 236.44656 563.25867 245.11633 557.13867 251.23633 C 551.01867 257.35633 542.22109 260.41602 530.74609 260.41602 L 508.94336 260.41602 C 487.77836 260.41602 477.19531 249.32367 477.19531 227.13867 L 477.19531 155.75195 C 476.748 155.91341 476.30112 156.06598 475.85352 156.23047 C 473.05799 157.2578 470.25651 158.34427 467.44922 159.48047 C 464.64192 160.61666 461.82867 161.80101 459.00977 163.02539 C 456.19086 164.24978 453.36733 165.51469 450.53711 166.80469 C 450.11684 166.99624 449.69397 167.19601 449.27344 167.38867 L 449.27344 228.28516 C 449.27344 246.13516 454.24641 260.03352 464.19141 269.97852 C 474.39141 279.92352 488.28781 284.89648 505.88281 284.89648 L 525.77344 284.89648 C 545.40844 284.89648 558.41406 278.13805 564.78906 264.62305 L 566.31836 264.62305 L 566.31836 279.54102 C 566.31836 283.11102 568.10383 284.89648 571.67383 284.89648 L 588.88672 284.89648 C 592.45672 284.89648 594.24023 283.11102 594.24023 279.54102 L 594.24023 160.48633 C 593.50323 160.18116 592.76558 159.87093 592.0293 159.57227 C 589.22168 158.43341 586.41891 157.34304 583.62305 156.3125 C 580.82721 155.28197 578.03803 154.31002 575.25391 153.40625 C 572.4698 152.50247 569.69076 151.66748 566.91797 150.90625 C 566.7179 150.85132 566.51837 150.80416 566.31836 150.75 z M 872.9043 154.29297 C 871.72814 154.69195 870.55117 155.09611 869.37305 155.51758 C 866.58028 156.51667 863.78113 157.57698 860.97656 158.68945 C 858.17255 159.80173 855.36251 160.96642 852.54688 162.17188 C 850.0307 163.24911 847.50788 164.36912 844.98242 165.50391 L 844.98242 279.54102 C 844.98242 283.11102 846.76594 284.89648 850.33594 284.89648 L 867.54883 284.89648 C 871.11883 284.89648 872.9043 283.11102 872.9043 279.54102 L 872.9043 154.29297 z M 1037.2656 184.02539 L 1037.2656 279.54102 C 1037.2656 283.11102 1039.0511 284.89648 1042.6211 284.89648 L 1059.834 284.89648 C 1063.404 284.89648 1065.1875 283.11102 1065.1875 279.54102 L 1065.1875 195.20508 C 1064.394 194.93455 1063.5994 194.67219 1062.8066 194.39258 C 1059.8943 193.3653 1056.9885 192.2771 1054.0879 191.13867 C 1051.1874 190.00026 1048.2913 188.8133 1045.4023 187.58594 C 1042.6845 186.43124 1039.9733 185.23861 1037.2656 184.02539 z M 647.33594 184.73047 L 647.33594 279.54102 C 647.33594 283.11102 649.12141 284.89648 652.69141 284.89648 L 669.9043 284.89648 C 673.4743 284.89648 675.25977 283.11102 675.25977 279.54102 L 675.25977 195.75391 C 673.23924 195.08305 671.22009 194.39289 669.20508 193.66211 C 666.29546 192.6069 663.392 191.49335 660.49414 190.33203 C 657.59632 189.17073 654.70459 187.96161 651.81836 186.7168 C 650.32145 186.07119 648.83004 185.39373 647.33594 184.73047 z M 261.01172 187.0332 L 261.01172 228.28516 C 261.01172 246.13516 265.98469 260.03352 275.92969 269.97852 C 286.12969 279.92352 300.02609 284.89648 317.62109 284.89648 L 398.71094 284.89648 C 402.28094 284.89648 404.06641 283.23883 404.06641 279.92383 L 404.06641 266.1543 C 404.06641 262.5843 402.28094 260.79883 398.71094 260.79883 L 320.68164 260.79883 C 299.26164 260.79883 288.55273 249.70648 288.55273 227.52148 L 288.55273 204.1875 C 288.55273 201.8925 289.82695 200.74609 292.37695 200.74609 L 301.39844 200.74609 C 298.63305 200.11612 295.87125 199.42007 293.11523 198.65039 C 290.18526 197.83212 287.26237 196.93829 284.34375 195.97852 C 281.42515 195.01876 278.51233 193.99217 275.60547 192.91016 C 272.69862 191.82815 269.79746 190.69076 266.90234 189.50781 C 264.93584 188.70428 262.97291 187.8745 261.01172 187.0332 z M 405.97852 187.33398 C 403.6532 188.32648 401.32486 189.3013 398.99219 190.23828 C 396.09465 191.40216 393.19055 192.51781 390.28125 193.57617 C 387.37195 194.63454 384.4581 195.63446 381.53711 196.56641 C 378.61609 197.49836 375.69005 198.36168 372.75781 199.14844 C 370.59565 199.72857 368.42956 200.25233 366.26172 200.74609 L 400.625 200.74609 C 404.195 200.74609 405.97852 198.83281 405.97852 195.00781 L 405.97852 187.33398 z M 792.30469 189.52344 C 789.50238 190.66792 786.69409 191.77207 783.88086 192.82227 C 780.97431 193.9073 778.06281 194.93706 775.14453 195.90039 C 772.22624 196.86372 769.30271 197.76166 766.37305 198.58398 C 765.70952 198.77023 765.04492 198.93886 764.38086 199.11719 L 764.38086 279.54102 C 764.38086 283.11102 766.16633 284.89648 769.73633 284.89648 L 786.94922 284.89648 C 790.51922 284.89648 792.30469 283.11102 792.30469 279.54102 L 792.30469 189.52344 z M 1173.8184 193.41602 C 1172.1309 194.03349 1170.4414 194.63642 1168.75 195.21289 C 1165.8344 196.20654 1162.9134 197.13523 1159.9863 197.99219 C 1157.0592 198.84917 1154.1272 199.63314 1151.1895 200.33594 C 1149.4269 200.75756 1147.6625 201.14182 1145.8965 201.50391 L 1145.8965 279.54102 C 1145.8965 283.11102 1147.68 284.89648 1151.25 284.89648 L 1168.4629 284.89648 C 1172.0329 284.89648 1173.8184 283.11102 1173.8184 279.54102 L 1173.8184 193.41602 z M 26.173828 228.28516 C 22.858828 228.28516 21.203125 229.94281 21.203125 233.25781 L 21.203125 279.54102 C 21.203125 283.11102 22.858828 284.89648 26.173828 284.89648 L 45.681641 284.89648 C 48.996641 284.89648 50.654297 283.11102 50.654297 279.54102 L 50.654297 233.25781 C 50.654297 229.94281 48.996641 228.28516 45.681641 228.28516 L 26.173828 228.28516 z "
       clip-path="url(#clipPath10025)"
       style="font-style:normal;font-weight:normal;font-size:40px;line-height:125%;font-family:sans-serif;letter-spacing:0px;word-spacing:0px;display:inline;fill:#0068c9;fill-opacity:1;stroke:none;stroke-width:1px;stroke-linecap:butt;stroke-linejoin:miter;stroke-opacity:1" />
  </g>
  <g
     style="display:none"
     id="layer3">
    <g
       style="fill:none"
       id="g10074" />
  </g>
</svg>
